<svg width="32" height="32" viewBox="0 0 32 32" fill="none" xmlns="http://www.w3.org/2000/svg">
<path d="M12.896 15.232C13.248 13.824 14.496 12.8 16 12.8C17.504 12.8 18.752 13.824 19.104 15.232C25.024 15.328 30.24 15.68 30.4 16.352C30.4 16.224 30.4 16.128 30.4 16C30.4 8.03201 23.968 1.60001 16 1.60001C8.03198 1.60001 1.59998 8.03201 1.59998 16C1.59998 16.128 1.59998 16.224 1.59998 16.352C1.75998 15.712 6.97598 15.328 12.896 15.232Z" fill="white"/>
<path d="M16 19.2C14.528 19.2 13.28 18.176 12.896 16.832C7.39198 16.928 2.49598 17.248 1.69598 17.824C2.62398 24.896 8.67198 30.4 16 30.4C23.328 30.4 29.376 24.928 30.272 17.824C29.472 17.248 24.608 16.928 19.072 16.832C18.72 18.208 17.472 19.2 16 19.2Z" fill="white"/>
<path d="M16 18.4C17.3255 18.4 18.4 17.3255 18.4 16C18.4 14.6745 17.3255 13.6 16 13.6C14.6745 13.6 13.6 14.6745 13.6 16C13.6 17.3255 14.6745 18.4 16 18.4Z" fill="white"/>
</svg>
