<svg width="90" height="90" viewBox="0 0 90 90" fill="none" xmlns="http://www.w3.org/2000/svg">
<g clip-path="url(#clip0)">
<path d="M86.4621 27.4847C84.1961 22.1262 80.9526 17.3128 76.8216 13.1806C72.6879 9.04961 67.8734 5.8046 62.5174 3.53871C56.9696 1.19178 51.0753 0.00100708 44.9999 0.00100708C38.9258 0.00100708 33.0318 1.19161 27.4837 3.53871C22.1252 5.8046 17.3118 9.04979 13.1794 13.1806C9.0486 17.3128 5.80359 22.1262 3.53753 27.4847C1.19078 33.0329 0 38.927 0 45.0009C0 51.0761 1.1906 56.9704 3.5377 62.5184C5.80359 67.8744 9.04878 72.6889 13.1796 76.8198C17.3118 80.9536 22.1252 84.1971 27.4839 86.463C33.032 88.8087 38.926 90.0007 45.0001 90.0007C51.0754 90.0007 56.9697 88.8087 62.5176 86.463C67.8736 84.1969 72.688 80.9535 76.8218 76.8198C80.9528 72.6889 84.1962 67.8743 86.4623 62.5184C88.808 56.9704 90 51.0761 90 45.0009C89.9998 38.927 88.8078 33.0329 86.4621 27.4847Z" fill="#ED5564"/>
<path d="M0.0179443 46.2635C0.171757 51.8911 1.35269 57.3542 3.53772 62.5175C5.8036 67.8736 9.0488 72.688 13.1796 76.819C17.3118 80.9528 22.1252 84.1962 27.4839 86.4621C33.032 88.8078 38.926 89.9998 45.0001 89.9998C51.0755 89.9998 56.9698 88.8078 62.5176 86.4621C67.8736 84.1961 72.688 80.9526 76.8218 76.819C80.9528 72.688 84.1963 67.8734 86.4623 62.5175C88.6487 57.3542 89.8297 51.8911 89.9835 46.2635H0.0179443Z" fill="#E6E9ED"/>
<path d="M89.7855 49.4331C89.9283 47.9663 89.9998 46.4886 89.9998 45.0001C89.9998 43.3273 89.9091 41.6684 89.7307 40.0273C87.4949 40.372 84.2841 40.8211 80.2386 41.2673C72.5588 42.1145 60.2158 43.1253 44.9999 43.1253C29.7852 43.1253 17.4408 42.1145 9.76265 41.2673C5.71569 40.8209 2.50619 40.372 0.270535 40.0273C0.0907058 41.6684 0 43.3275 0 45.0001C0 46.4886 0.0713693 47.9665 0.214284 49.4331C7.51469 50.5317 23.5986 52.4981 44.9999 52.4981C66.4012 52.4981 82.485 50.5317 89.7855 49.4331Z" fill="#434A54"/>
<path d="M54.3767 46.8745C54.3767 52.053 50.177 56.2499 44.9999 56.2499C39.8226 56.2499 35.6245 52.053 35.6245 46.8745C35.6245 41.6971 39.8226 37.5003 44.9999 37.5003C50.177 37.5005 54.3767 41.6972 54.3767 46.8745Z" fill="#E6E9ED"/>
<path d="M44.9999 29.9997C35.6945 29.9997 28.1249 37.5707 28.1249 46.8747C28.1249 56.1787 35.6947 63.7481 44.9999 63.7481C54.3052 63.7481 61.8747 56.1785 61.8747 46.8747C61.8747 37.5707 54.3053 29.9997 44.9999 29.9997ZM44.9999 54.3769C40.8651 54.3769 37.5003 51.0095 37.5003 46.8747C37.5003 42.7397 40.8649 39.3751 44.9999 39.3751C49.1363 39.3751 52.4979 42.7397 52.4979 46.8747C52.4979 51.0094 49.1363 54.3769 44.9999 54.3769Z" fill="#434A54"/>
<path opacity="0.2" d="M86.4622 27.4839C84.1961 22.1254 80.9527 17.312 76.8217 13.1798C72.6879 9.04879 67.8735 5.80377 62.5174 3.53788C56.9696 1.19096 51.0753 0.000183105 45 0.000183105C44.3724 0.000183105 43.7475 0.0138944 43.1254 0.0386803C48.5377 0.258413 53.7889 1.43267 58.7658 3.53788C64.1269 5.80377 68.9391 9.04896 73.0697 13.1798C77.2007 17.312 80.4473 22.1254 82.7128 27.4839C85.0611 33.032 86.2477 38.9261 86.2477 45.0003C86.2477 51.0755 85.0611 56.9697 82.7128 62.5177C80.4471 67.8738 77.2007 72.6882 73.0697 76.8192C68.9391 80.953 64.1269 84.1964 58.7658 86.4623C53.7889 88.5663 48.5375 89.7418 43.1254 89.9615C43.7475 89.9863 44.3722 90 45 90C51.0753 90 56.9696 88.808 62.5174 86.4623C67.8735 84.1962 72.6879 80.9528 76.8217 76.8192C80.9527 72.6882 84.1961 67.8736 86.4622 62.5177C88.8079 56.9697 89.9999 51.0755 89.9999 45.0003C89.9999 38.9261 88.8079 33.032 86.4622 27.4839Z" fill="white"/>
<path opacity="0.1" d="M3.5377 62.5184C5.80359 67.8744 9.04878 72.6889 13.1796 76.8198C17.3118 80.9536 22.1252 84.1971 27.4839 86.463C33.032 88.8087 38.926 90.0007 45.0001 90.0007C45.6276 90.0007 46.2526 89.987 46.8747 89.9622C41.4624 89.7424 36.2097 88.5668 31.2328 86.463C25.8744 84.1969 21.0624 80.9535 16.9302 76.8198C12.798 72.6889 9.55417 67.8743 7.28687 62.5184C4.93977 56.9706 3.75058 51.0763 3.75058 45.0009C3.75058 38.9268 4.93977 33.0327 7.2867 27.4845C9.55399 22.126 12.7978 17.3125 16.93 13.1818C21.0622 9.04961 25.8742 5.80442 31.2327 3.53853C36.2095 1.43331 41.4622 0.259062 46.8745 0.0393285C46.2524 0.0147184 45.6275 0.00100708 44.9999 0.00100708C38.9258 0.00100708 33.0318 1.19161 27.4837 3.53871C22.1252 5.8046 17.3118 9.04979 13.1794 13.182C9.0486 17.3128 5.80359 22.1262 3.53753 27.4847C1.19078 33.0329 0 38.927 0 45.0009C0 51.0761 1.19078 56.9706 3.5377 62.5184Z" fill="black"/>
</g>
<defs>
<clipPath id="clip0">
<rect width="90" height="90" fill="white"/>
</clipPath>
</defs>
</svg>
